<svg width="260" height="260" viewBox="0 0 260 260" fill="none" xmlns="http://www.w3.org/2000/svg">
<g clip-path="url(#clip0)">
<rect width="260" height="260" fill="white"/>
<path d="M191.936 17.8958C191.936 17.5252 191.565 17.34 191.195 17.34H64.4692C64.284 17.34 63.9134 17.5252 63.7281 17.7105L0.365477 127.576C0.180206 127.947 0.180189 128.317 0.550731 128.503C0.736002 128.688 0.921278 128.688 1.10655 128.688C1.29182 128.688 1.29181 128.688 1.47709 128.503L191.565 18.8221C191.936 18.6369 191.936 18.2663 191.936 17.8958Z" fill="#3667B1"/>
<path d="M192.862 241.888L130.24 133.505C129.499 132.393 128.943 131.837 127.646 131.837H2.03243C1.84716 131.837 1.47663 132.023 1.29136 132.208C1.10609 132.393 1.10609 132.764 1.29136 132.949L64.8393 242.629C65.0246 242.815 65.2098 243 65.5804 243H192.12C192.306 243 192.676 242.815 192.862 242.629C193.047 242.444 193.047 242.074 192.862 241.888Z" fill="#1E396C"/>
<path d="M259.93 129.985L197.123 21.0454C196.938 20.6748 196.567 20.6749 196.197 20.6749C195.826 20.6749 195.641 21.0454 195.641 21.4159V239.295C195.641 239.665 195.826 239.85 196.197 240.036H196.382C196.567 240.036 196.938 239.85 197.123 239.665L259.93 130.726C260.115 130.541 260.115 130.17 259.93 129.985Z" fill="#3667B1"/>
<path d="M3.14343 129.245C2.0318 129.986 2.0318 130.542 3.51396 130.542H128.387C129.498 130.542 130.239 130.912 130.98 132.024L193.417 240.037C194.158 241.149 194.714 241.149 194.714 239.666V21.2318C194.714 19.9349 193.787 19.3791 192.676 19.9349L3.14343 129.245Z" fill="white"/>
<path d="M193.047 23.4539C192.677 23.4539 192.306 23.4539 192.121 23.8244L130.982 129.799C130.796 129.985 130.796 130.355 130.982 130.541L192.306 236.701C192.492 236.886 192.677 237.071 193.047 237.071H193.233C193.603 237.071 193.788 236.701 193.788 236.33L193.603 24.195C193.603 23.8244 193.418 23.4539 193.047 23.4539Z" fill="#E6E7E8"/>
</g>
<defs>
<clipPath id="clip0">
<rect width="260" height="260" fill="white"/>
</clipPath>
</defs>
</svg>
